<svg xmlns="http://www.w3.org/2000/svg" viewBox="0 0 512 512"><defs><style>.cls-1,.cls-2{fill:#fff;}.cls-1{opacity:0.81;}</style></defs><title>female</title><g id="Line"><path class="cls-1" d="M328.45,357.47l-67.76,6.38,10.07-67.6,105.45-98.88L292.84,52.07,139.51,119.28,266.66,295.76l-10.2,68.49-58.68,5.52.39,4.11,57.67-5.43L245.6,437.2l4.08.6,10.39-69.75,68.76-6.47ZM291.1,57.34,371,196.59,269.13,292.12,145.85,121Z"/></g><g id="Star_01" data-name="Star 01"><path class="cls-2" d="M199.29,119.23l-47.7-7.57-8-45.38a1,1,0,0,0-1.93,0l-8,45.38-47.7,7.57a.92.92,0,0,0,0,1.83l47.7,7.56,8,45.38a1,1,0,0,0,1.93,0l8-45.38,47.7-7.56A.92.92,0,0,0,199.29,119.23Z"/></g><g id="Star_02" data-name="Star 02"><path class="cls-2" d="M338.67,53.91l-39.35-6.55L292.77,8a.81.81,0,0,0-1.59,0l-6.56,39.35-39.34,6.55a.81.81,0,0,0,0,1.59l39.34,6.56,6.56,39.34a.81.81,0,0,0,1.59,0l6.55-39.34,39.35-6.56A.81.81,0,0,0,338.67,53.91Z"/></g><g id="Star_03" data-name="Star 03"><path class="cls-2" d="M243.93,371.3l-38.76-6.46-6.46-38.76a.79.79,0,0,0-1.56,0l-6.46,38.76-38.76,6.46a.79.79,0,0,0,0,1.56l38.76,6.46,6.46,38.76a.79.79,0,0,0,1.56,0l6.46-38.76,38.76-6.46A.79.79,0,0,0,243.93,371.3Z"/></g><g id="Star_04" data-name="Star 04"><path class="cls-2" d="M367.58,359,336,353.78l-5.27-31.25a.65.65,0,0,0-1.28,0l-5.27,31.25L292.51,359a.64.64,0,0,0,0,1.26l31.63,5.21,5.27,31.25a.65.65,0,0,0,1.28,0L336,365.46l31.62-5.21A.64.64,0,0,0,367.58,359Z"/></g><g id="Star_05" data-name="Star 05"><path class="cls-2" d="M310.86,436.77l-51.46-8.58-8.57-51.46a1.06,1.06,0,0,0-2.08,0l-8.58,51.46-51.45,8.58a1,1,0,0,0,0,2.07l51.45,8.58,8.58,51.45a1.05,1.05,0,0,0,2.08,0l8.57-51.45,51.46-8.58A1,1,0,0,0,310.86,436.77Z"/></g><g id="Star_06" data-name="Star 06"><path class="cls-2" d="M320.11,294.36l-43.21-7.2L269.7,244a.89.89,0,0,0-1.75,0l-7.2,43.21-43.21,7.2a.89.89,0,0,0,0,1.75l43.21,7.2,7.2,43.21a.89.89,0,0,0,1.75,0l7.2-43.21,43.21-7.2A.89.89,0,0,0,320.11,294.36Z"/></g><g id="Star_07" data-name="Star 07"><path class="cls-2" d="M434.64,195.94l-51.42-8.56L374.65,136a1.05,1.05,0,0,0-2.08,0L364,187.38l-51.42,8.56a1.06,1.06,0,0,0,0,2.08L364,206.59,372.57,258a1.06,1.06,0,0,0,2.08,0l8.57-51.42L434.64,198A1.06,1.06,0,0,0,434.64,195.94Z"/></g></svg>