<svg xmlns="http://www.w3.org/2000/svg" viewBox="0 0 512 512"><defs><style>.cls-1,.cls-2{fill:#fff;}.cls-1{opacity:0.81;}</style></defs><title>maleConst</title><g id="Line"><path class="cls-1" d="M111.29,407.05l-2.57-216.52,208.76-6.34L428.83,79.73H330.11v-5H434.16l3.28-3.08,4,106.86-5,.18-3.57-95.88L321.14,187.61l25,194.35Zm2.48-211.68,2.46,206.12,224.28-24-24.2-188.3Z"/></g><g id="Star_01" data-name="Star 01"><path class="cls-2" d="M163.73,403.42l-42.1-7-7-42.09a.86.86,0,0,0-1.7,0l-7,42.09-42.09,7a.86.86,0,0,0,0,1.7l42.09,7,7,42.1a.86.86,0,0,0,1.7,0l7-42.1,42.1-7A.86.86,0,0,0,163.73,403.42Z"/></g><g id="Star_02" data-name="Star 02"><path class="cls-2" d="M145.71,192.36l-29-4.84-4.84-29a.59.59,0,0,0-1.17,0l-4.84,29-29,4.84a.6.6,0,0,0,0,1.18l29,4.84,4.84,29a.59.59,0,0,0,1.17,0l4.84-29,29-4.84A.6.6,0,0,0,145.71,192.36Z"/></g><g id="Star_03" data-name="Star 03"><path class="cls-2" d="M383.44,185.59l-52.88-8.81-8.81-52.88a1.08,1.08,0,0,0-2.14,0l-8.81,52.88-52.88,8.81a1.08,1.08,0,0,0,0,2.14l52.88,8.81,8.81,52.88a1.08,1.08,0,0,0,2.14,0l8.81-52.88,52.88-8.81A1.08,1.08,0,0,0,383.44,185.59Z"/></g><g id="Star_04" data-name="Star 04"><path class="cls-2" d="M485.11,76.38l-42.1-7-7-42.1a.86.86,0,0,0-1.7,0l-7,42.1-42.1,7a.86.86,0,0,0,0,1.7l42.1,7,7,42.1a.86.86,0,0,0,1.7,0l7-42.1,42.1-7A.86.86,0,0,0,485.11,76.38Z"/></g><g id="Star_05" data-name="Star 05"><path class="cls-2" d="M469.66,178.08l-25.9-4.32-4.32-25.91a.53.53,0,0,0-1.05,0l-4.31,25.91-25.91,4.32a.53.53,0,0,0,0,1l25.91,4.32,4.31,25.9a.53.53,0,0,0,1.05,0l4.32-25.9,25.9-4.32A.53.53,0,0,0,469.66,178.08Z"/></g><g id="Star_06" data-name="Star 06"><path class="cls-2" d="M354.66,76.81,334,73.36l-3.45-20.68a.42.42,0,0,0-.83,0l-3.45,20.68-20.68,3.45a.42.42,0,0,0,0,.83l20.68,3.45,3.45,20.68a.42.42,0,0,0,.83,0L334,81.09l20.68-3.45A.42.42,0,0,0,354.66,76.81Z"/></g><g id="Star_07" data-name="Star 07"><path class="cls-2" d="M403.21,378.72l-50.46-8.41-8.41-50.45a1,1,0,0,0-2,0l-8.41,50.45-50.45,8.41a1,1,0,0,0,0,2l50.45,8.41,8.41,50.46a1,1,0,0,0,2,0l8.41-50.46,50.46-8.41A1,1,0,0,0,403.21,378.72Z"/></g></svg>